:SAMPLES-PER-SECOND 30
:FULLY-SPECIFIED
:DEGREES
184
root  -56.8056 34.7311 28.5169 -171.127 53.6235 179.023
RightUpLeg  -10.4789 -17.2063 -6.70623
RightLeg  8.33264 -0.440653 -0.0347027
RightFoot  7.09369 0.0290501 0.141673
RightToes  -29.2625 -0.142316 -0.250399
Spine  -2.22931 2.3037 -3.52332
Spine1  -4.60303 4.72501 -6.37164
HEad  -74.8408 -6.68055 4.00157
LeftShoulder1  -1.94126e-019 -3.10601e-018 -2.51263e-017
LeftArm  -15.902 32.1427 -74.1466
LeftForeArm  34.9615 -10.6916 -1.86241
LeftHand  -0.236822 -0.655504 4.64718
RightShoulder  -4.96962e-017 0 -2.36833e-017
RightArm  -14.0702 -20.5713 79.8262
RightForeArm  57.8203 19.1829 1.85085
RightHand  -0.273403 0.517569 -5.45305
LeftUpLeg  -11.2293 -0.653921 -4.60071
LeftLeg  9.69024 17.4335 1.80484
LeftFoot  0.453213 -0.000438619 0.330135
LeftToes  -9.33782 1.48321e-006 1.01846e-007
185
root  -56.841 34.7115 28.4208 -170.838 52.8603 178.934
RightUpLeg  -10.6727 -18.044 -6.8095
RightLeg  8.44606 -0.39945 -0.032154
RightFoot  7.07472 0.0270263 0.151062
RightToes  -29.7367 -0.143908 -0.252007
Spine  -2.41547 2.36438 -3.5857
Spine1  -4.97898 4.85621 -6.50068
HEad  -76.3322 -6.83961 4.65681
LeftShoulder1  -1.94126e-019 -3.10601e-018 -2.51263e-017
LeftArm  -15.9772 32.064 -74.0437
LeftForeArm  36.6083 -9.62482 -1.6918
LeftHand  -0.233123 -0.985727 4.36781
RightShoulder  -4.96962e-017 0 -2.36833e-017
RightArm  -16.1546 -20.2942 80.0179
RightForeArm  60.0356 17.3638 1.90866
RightHand  -0.271436 0.496081 -5.43199
LeftUpLeg  -11.3573 -0.948393 -4.76526
LeftLeg  9.23425 16.9487 1.62202
LeftFoot  0.532937 -0.000889351 0.352857
LeftToes  -9.18307 1.48321e-006 1.01846e-007
186
root  -56.8724 34.6839 28.3053 -170.831 52.2264 178.662
RightUpLeg  -10.8434 -18.496 -7.12446
RightLeg  8.83983 -0.573722 -0.0506546
RightFoot  6.8274 0.0262512 0.140437
RightToes  -30.021 -0.145178 -0.253275
Spine  -2.58615 2.46851 -3.45914
Spine1  -5.3006 5.07954 -6.23414
HEad  -77.045 -6.98162 4.31195
LeftShoulder1  -1.94126e-019 -3.10601e-018 -2.51263e-017
LeftArm  -16.0255 31.9905 -74.479
LeftForeArm  36.7229 -9.38028 -1.64823
LeftHand  -0.236436 -0.982043 4.43066
RightShoulder  -4.96962e-017 0 -2.36833e-017
RightArm  -18.0396 -20.2431 79.5725
RightForeArm  62.224 17.2505 2.23643
RightHand  -0.280697 0.369673 -5.72638
LeftUpLeg  -11.2158 -1.21283 -5.06487
LeftLeg  8.58277 16.5562 1.39853
LeftFoot  0.755226 -0.00171362 0.421618
LeftToes  -9.26054 1.48321e-006 1.01846e-007
187
root  -56.8843 34.6927 28.1842 -170.956 51.6927 178.436
RightUpLeg  -10.5534 -18.7463 -7.45516
RightLeg  8.67138 -0.857805 -0.0737213
RightFoot  6.8694 0.0274746 0.0990153
RightToes  -30.253 -0.145927 -0.254012
Spine  -2.62214 2.40019 -3.69848
Spine1  -5.3998 4.88427 -6.71048
HEad  -77.5861 -6.69205 5.33088
LeftShoulder1  -1.94126e-019 -3.10601e-018 -2.51263e-017
LeftArm  -15.9683 31.4972 -73.7815
LeftForeArm  35.7925 -9.73377 -1.71033
LeftHand  -0.251426 -0.508541 5.03834
RightShoulder  -4.96962e-017 0 -2.36833e-017
RightArm  -18.4382 -19.5885 80.2096
RightForeArm  62.3029 15.6444 2.00704
RightHand  -0.273563 0.111078 -5.81873
LeftUpLeg  -10.4896 -1.41865 -5.33413
LeftLeg  7.13065 16.2413 0.964688
LeftFoot  1.26889 -0.0044121 0.560022
LeftToes  -9.01441 1.48321e-006 1.01846e-007
188
root  -56.9058 34.6964 28.0764 -171.285 51.1507 178.178
RightUpLeg  -10.3 -18.8519 -7.85783
RightLeg  8.92203 -1.26374 -0.114699
RightFoot  6.69753 0.0289651 0.0514637
RightToes  -30.115 -0.145956 -0.254024
Spine  -2.63507 2.35364 -3.72469
Spine1  -5.42752 4.74815 -6.74745
HEad  -77.2207 -7.06456 5.30415
LeftShoulder1  -1.94126e-019 -3.10601e-018 -2.51263e-017
LeftArm  -15.5419 30.9386 -73.5602
LeftForeArm  34.6506 -10.6276 -1.85241
LeftHand  -0.261696 -0.49291 5.25414
RightShoulder  -4.96962e-017 0 -2.36833e-017
RightArm  -18.0434 -19.314 80.2483
RightForeArm  62.2771 16.0803 1.98462
RightHand  -0.525411 3.53784 -7.07639
LeftUpLeg  -9.83768 -1.63278 -5.62609
LeftLeg  6.16495 15.9453 0.681721
LeftFoot  1.63021 -0.00699655 0.653351
LeftToes  -8.60234 1.48321e-006 1.01846e-007
189
root  -56.9227 34.6903 27.944 -171.659 50.6076 177.861
RightUpLeg  -10.2614 -19.236 -8.32415
RightLeg  9.66082 -1.39957 -0.145409
RightFoot  6.33176 0.0275304 0.0433311
RightToes  -30.1659 -0.145065 -0.253117
Spine  -2.62734 2.35286 -3.5631
Spine1  -5.39075 4.71397 -6.39328
HEad  -76.5602 -7.33238 4.90731
LeftShoulder1  -1.94126e-019 -3.10601e-018 -2.51263e-017
LeftArm  -14.4401 30.2128 -73.8789
LeftForeArm  32.8996 -11.8898 -2.01618
LeftHand  -0.26455 -0.408832 5.37995
RightShoulder  -4.96962e-017 0 -2.36833e-017
RightArm  -16.6079 -19.5087 79.7089
RightForeArm  61.1727 18.7286 2.24939
RightHand  -0.504611 3.19366 -7.05639
LeftUpLeg  -9.20928 -2.18222 -5.97292
LeftLeg  5.32957 15.9832 0.45311
LeftFoot  1.97802 -0.0102499 0.755318
LeftToes  -8.24071 1.48321e-006 1.01846e-007
190
root  -56.943 34.7292 27.8726 -171.879 50.0263 177.792
RightUpLeg  -10.0815 -19.0246 -8.53626
RightLeg  10.0716 -2.22095 -0.247425
RightFoot  6.18511 0.0321513 -0.0537897
RightToes  -29.6179 -0.141299 -0.249302
Spine  -2.6209 2.11342 -3.73257
Spine1  -5.38965 4.16819 -6.74167
HEad  -75.2202 -7.46764 5.51054
LeftShoulder1  -1.94126e-019 -3.10601e-018 -2.51263e-017
LeftArm  -13.6897 29.1198 -73.0946
LeftForeArm  31.6538 -12.8937 -2.11698
LeftHand  -0.277674 -0.412779 5.64078
RightShoulder  -4.96962e-017 0 -2.36833e-017
RightArm  -14.1304 -19.2126 80.3432
RightForeArm  59.0058 19.2475 1.90918
RightHand  -0.49103 3.26476 -6.82149
LeftUpLeg  -8.38506 -2.67963 -6.08335
LeftLeg  4.00604 15.8908 0.0882291
LeftFoot  2.60642 -0.0192189 0.918118
LeftToes  -7.62437 1.48321e-006 1.01846e-007
191
root  -56.9669 34.7597 27.8221 -172.034 49.6191 177.757
RightUpLeg  -10.4363 -18.5885 -8.63697
RightLeg  11.3021 -3.17224 -0.422948
RightFoot  5.55559 0.0326679 -0.127447
RightToes  -28.1318 -0.131271 -0.238774
Spine  -2.60798 2.00346 -3.67896
Spine1  -5.35344 3.91343 -6.63812
HEad  -73.5034 -8.02791 5.27253
LeftShoulder1  -1.94126e-019 -3.10601e-018 -2.51263e-017
LeftArm  -12.9951 27.6896 -72.9048
LeftForeArm  31.4048 -13.6869 -2.17467
LeftHand  -0.279876 -0.981013 5.22668
RightShoulder  -4.96962e-017 0 -2.36833e-017
RightArm  -12.169 -19.1248 80.4212
RightForeArm  57.5005 21.1422 1.95061
RightHand  -0.490527 3.19221 -6.86746
LeftUpLeg  -7.78008 -2.92085 -6.17508
LeftLeg  3.0134 15.7975 -0.182385
LeftFoot  3.0427 -0.0251911 1.03021
LeftToes  -6.99575 1.48321e-006 1.01846e-007
192
root  -56.99 34.7873 27.8131 -172.064 49.4106 177.811
RightUpLeg  -11.3024 -17.6298 -8.52133
RightLeg  13.3073 -4.49067 -0.759618
RightFoot  3.65169 0.020755 -0.103542
RightToes  -23.9473 -0.104538 -0.207777
Spine  -2.60415 1.95097 -3.62972
Spine1  -5.33878 3.7926 -6.54637
HEad  -71.971 -8.38216 5.14826
LeftShoulder1  -1.94126e-019 -3.10601e-018 -2.51263e-017
LeftArm  -11.6641 26.3204 -72.6629
LeftForeArm  30.4451 -15.8775 -2.50055
LeftHand  -0.28096 -0.804344 5.38047
RightShoulder  -4.96962e-017 0 -2.36833e-017
RightArm  -10.3893 -18.9492 80.5975
RightForeArm  56.3133 22.8916 2.14282
RightHand  -0.484653 3.06256 -6.88348
LeftUpLeg  -7.43882 -3.04251 -6.16997
LeftLeg  2.379 15.6939 -0.352789
LeftFoot  3.48091 -0.0314895 1.14302
LeftToes  -7.24881 1.48321e-006 1.01846e-007
193
root  -56.995 34.7961 27.8387 -172.204 49.2954 177.847
RightUpLeg  -12.2184 -16.6999 -8.23541
RightLeg  15.3486 -4.76064 -0.981113
RightFoot  1.63544 0.00679927 0.051945
RightToes  -23.666 -0.102824 -0.205624
Spine  -2.5409 1.89464 -3.61701
Spine1  -5.20765 3.67811 -6.52045
HEad  -70.7301 -8.69924 5.04268
LeftShoulder1  -1.94126e-019 -3.10601e-018 -2.51263e-017
LeftArm  -10.8362 24.7282 -72.3418
LeftForeArm  30.4873 -18.0656 -2.86903
LeftHand  -0.290066 -0.894052 5.48051
RightShoulder  -4.96962e-017 0 -2.36833e-017
RightArm  -9.16732 -18.6257 81.0307
RightForeArm  56.127 24.364 2.42149
RightHand  -0.483594 3.21584 -6.7569
LeftUpLeg  -7.23619 -3.13141 -6.11592
LeftLeg  2.22076 15.6854 -0.395387
LeftFoot  3.64713 -0.0337011 1.18772
LeftToes  -7.51701 1.48321e-006 1.01846e-007
194
root  -56.9627 34.8128 27.8838 -172.332 49.0405 177.921
RightUpLeg  -12.3462 -16.1321 -7.74666
RightLeg  15.2799 -1.50474 -0.308742
RightFoot  1.00529 0.0037652 0.144941
RightToes  -25.6937 -0.11542 -0.220951
Spine  -2.41342 1.80366 -3.60432
Spine1  -4.94749 3.50379 -6.49549
HEad  -69.9341 -8.87119 5.09022
LeftShoulder1  -1.94126e-019 -3.10601e-018 -2.51263e-017
LeftArm  -9.81072 22.8077 -71.9522
LeftForeArm  30.5917 -19.7071 -3.17128
LeftHand  -0.293916 -0.849817 5.58744
RightShoulder  -4.96962e-017 0 -2.36833e-017
RightArm  -7.6564 -18.1712 81.5211
RightForeArm  55.6847 25.5538 2.67451
RightHand  -0.47042 3.29217 -6.52686
LeftUpLeg  -7.0342 -3.16012 -5.97343
LeftLeg  2.1413 15.5172 -0.412514
LeftFoot  3.7486 -0.0343214 1.20288
LeftToes  -7.394 1.48321e-006 1.01846e-007
